Coordinates
version=1
nRows=13
nColumns=38
inDegrees=no

Units are S.I. units (second, meters, Newtons, ...)
If the header above contains a line with 'inDegrees', this indicates whether rotational values are in degrees (yes) or radians (no).

endheader
time	pelvis_tilt	pelvis_list	pelvis_rotation	pelvis_tx	pelvis_ty	pelvis_tz	hip_flexion_r	hip_adduction_r	hip_rotation_r	knee_angle_r	ankle_angle_r	subtalar_angle_r	mtp_angle_r	hip_flexion_l	hip_adduction_l	hip_rotation_l	knee_angle_l	ankle_angle_l	subtalar_angle_l	mtp_angle_l	lumbar_extension	lumbar_bending	lumbar_rotation	arm_flex_r	arm_add_r	arm_rot_r	elbow_flex_r	pro_sup_r	wrist_flex_r	wrist_dev_r	arm_flex_l	arm_add_l	arm_rot_l	elbow_flex_l	pro_sup_l	wrist_flex_l	wrist_dev_l
15	-0.393347	1.36908	1.77149	0.69037	-1.00131	0.902725	0.27111	-0.00218336	0.146651	0.382399	-0.059291	0	0	0.508586	-0.0321512	-0.147693	0.377412	-0.280689	0	0	0.070545	-0.0840039	0.172229	0.252221	-0.42777	0.151744	1.89827	1.5708	0	0	0.241642	-0.537632	0.140643	1.81632	1.5708	0	0
15.01	-0.383023	1.36459	1.76416	0.690265	-1.00058	0.902743	0.261506	-0.00238061	0.145791	0.35313	-0.0573556	0	0	0.512827	-0.0313281	-0.146281	0.375638	-0.282549	0	0	0.0701636	-0.0717097	0.175415	0.232602	-0.445732	0.134287	1.92121	1.5708	0	0	0.24703	-0.548048	0.132084	1.83528	1.5708	0	0
15.02	-0.409586	1.36736	1.79819	0.69024	-0.999169	0.902186	0.254265	-0.00360466	0.132734	0.353195	-0.0575545	0	0	0.508453	-0.0235419	-0.147162	0.377365	-0.28269	0	0	0.0629231	-0.0808821	0.170777	0.20746	-0.452222	0.105925	1.93972	1.5708	0	0	0.239374	-0.550348	0.132316	1.84887	1.5708	0	0
15.03	-0.400399	1.38516	1.78047	0.691216	-1.00184	0.904345	0.246244	0.00746413	0.132276	0.367133	-0.0634299	0	0	0.492484	-0.033609	-0.149394	0.376759	-0.288357	0	0	0.0473533	-0.0645697	0.144033	0.249557	-0.439927	0.141457	1.9023	1.5708	0	0	0.196572	-0.559147	0.0881479	1.8554	1.5708	0	0
15.04	-0.255089	1.39591	1.62864	0.690489	-1.00251	0.909821	0.295783	0.0417413	0.0541076	0.581736	-0.0489854	0	0	0.480236	-0.0605813	-0.141366	0.361424	-0.309018	0	0	0.0316597	-0.0263803	0.148301	0.241956	-0.454227	0.133588	1.902	1.5708	0	0	0.177987	-0.546017	0.0847507	1.85418	1.5708	0	0
15.05	-0.242722	1.38566	1.61213	0.690911	-1.00296	0.909267	0.306123	0.0486681	0.0566374	0.566662	-0.0323282	0	0	0.491888	-0.063574	-0.141086	0.361493	-0.312501	0	0	0.0419317	-0.0218656	0.150356	0.231855	-0.458133	0.124258	1.90307	1.5708	0	0	0.162837	-0.546219	0.0820924	1.86185	1.5708	0	0
15.06	-0.35821	1.35915	1.73025	0.692342	-1.00279	0.902573	0.287396	0.023422	0.15075	0.390673	-0.0641666	0	0	0.523955	-0.0397386	-0.1477	0.378387	-0.302016	0	0	0.0749164	-0.0538567	0.144335	0.221833	-0.451612	0.117309	1.90472	1.5708	0	0	0.148645	-0.561533	0.0764719	1.88093	1.5708	0	0
15.07	-0.355236	1.35495	1.72701	0.692644	-1.00263	0.902129	0.288896	0.0243932	0.160814	0.380129	-0.0677877	0	0	0.528764	-0.0398045	-0.147176	0.37849	-0.305558	0	0	0.0802811	-0.0554477	0.141888	0.221202	-0.474389	0.129514	1.90228	1.5708	0	0	0.135436	-0.56189	0.074997	1.89059	1.5708	0	0
15.08	-0.347684	1.35514	1.71922	0.692752	-1.00242	0.902033	0.290985	0.0287858	0.156286	0.387864	-0.0659376	0	0	0.529159	-0.0414322	-0.146486	0.378988	-0.308516	0	0	0.0758136	-0.0466439	0.140171	0.212717	-0.457269	0.115129	1.91093	1.5708	0	0	0.120298	-0.563249	0.0719779	1.89865	1.5708	0	0
15.09	-0.34729	1.34854	1.7178	0.693025	-1.00222	0.901417	0.296081	0.0251968	0.179678	0.373447	-0.0566714	0	0	0.535898	-0.0406336	-0.145227	0.378243	-0.313696	0	0	0.085525	-0.0517145	0.135152	0.2154	-0.476074	0.135469	1.91158	1.5708	0	0	0.10398	-0.562956	0.0669567	1.9092	1.5708	0	0
15.1	-0.337713	1.34798	1.70712	0.693265	-1.00186	0.901529	0.311268	0.0303377	0.162643	0.407863	-0.0648095	0	0	0.536258	-0.0430498	-0.145326	0.37769	-0.315292	0	0	0.0849048	-0.0482292	0.131461	0.213793	-0.474423	0.141299	1.92265	1.5708	0	0	0.087596	-0.563082	0.0615087	1.91739	1.5708	0	0
15.11	-0.341124	1.34199	1.71057	0.693586	-1.00144	0.900568	0.296446	0.0274382	0.186399	0.358326	-0.0554308	0	0	0.542836	-0.0413555	-0.144503	0.379284	-0.31434	0	0	0.0906062	-0.0497056	0.125913	0.211643	-0.470141	0.148841	1.9367	1.5708	0	0	0.0682963	-0.565319	0.0517378	1.92918	1.5708	0	0
15.12	-0.331659	1.3438	1.70083	0.693724	-1.00086	0.901008	0.30824	0.0338055	0.154386	0.400855	-0.060808	0	0	0.540156	-0.0436985	-0.144406	0.378296	-0.314926	0	0	0.0865152	-0.0459071	0.120423	0.210202	-0.466419	0.156521	1.95074	1.5708	0	0	0.049038	-0.564903	0.0401048	1.94081	1.5708	0	0
